<svg width="512" height="512" viewBox="0 0 512 512" fill="none" xmlns="http://www.w3.org/2000/svg">
  <defs>
    <pattern id="arabesque" width="128" height="128" patternUnits="userSpaceOnUse">
      <g stroke="#D7C6A8" stroke-opacity="0.34" stroke-width="1.2" fill="none">
        <circle cx="64" cy="64" r="46" />
        <circle cx="64" cy="64" r="22" />
        <path d="M64 10L76 52L118 64L76 76L64 118L52 76L10 64L52 52L64 10Z" />
        <path d="M0 64H128M64 0V128" />
        <path d="M18 18C30 30 30 98 18 110M110 18C98 30 98 98 110 110" />
        <path d="M18 18C30 30 98 30 110 18M18 110C30 98 98 98 110 110" />
      </g>
      <g stroke="#D0BE9F" stroke-opacity="0.28" stroke-width="1" fill="none">
        <path d="M0 0L28 28M128 0L100 28M0 128L28 100M128 128L100 100" />
      </g>
    </pattern>
  </defs>
  <rect width="512" height="512" fill="url(#arabesque)" />
</svg>
